<svg width="1138" height="150" viewBox="0 0 1138 150" fill="none" xmlns="http://www.w3.org/2000/svg">
<rect width="150" height="150" transform="translate(53)" fill="#F8B334"/>
<path d="M41.8213 32.3594L65.625 106.554L89.3555 32.3594H123.193V139H97.4121V114.098L99.9023 63.1211L74.1211 139H57.1289L31.2744 63.0479L33.7646 114.098V139H8.05664V32.3594H41.8213Z" transform="translate(63 -11)" fill="white"/>
<path d="M25 0L0 28L25 54" transform="translate(4 85)" stroke="black" stroke-width="5"/>
<path d="M25 0L0 28L25 54" transform="translate(1134 139) rotate(180)" stroke="black" stroke-width="5"/>
<path d="M38.5 0L0 73.5" transform="translate(1070 68.5)" stroke="black" stroke-width="5"/>
<path d="M7.5 91.2H23V123.2L49.2 91.2H63.5V145H48V113L21.9 145H7.5V91.2ZM112.296 145L100.496 128.5L88.2961 145H71.2961L91.9961 117.9L71.9961 91.2H89.4961L100.896 106.9L112.596 91.2H129.196L109.196 117.5L129.996 145H112.296ZM157.599 90.4C165.933 90.4 172.333 92.4 176.799 96.4C181.266 100.333 183.499 106.3 183.499 114.3V145H168.899V138.3C165.966 143.3 160.499 145.8 152.499 145.8C148.366 145.8 144.766 145.1 141.699 143.7C138.699 142.3 136.399 140.367 134.799 137.9C133.199 135.433 132.399 132.633 132.399 129.5C132.399 124.5 134.266 120.567 137.999 117.7C141.799 114.833 147.633 113.4 155.499 113.4H167.899C167.899 110 166.866 107.4 164.799 105.6C162.733 103.733 159.633 102.8 155.499 102.8C152.633 102.8 149.799 103.267 146.999 104.2C144.266 105.067 141.933 106.267 139.999 107.8L134.399 96.9C137.333 94.8333 140.833 93.2333 144.899 92.1C149.033 90.9667 153.266 90.4 157.599 90.4ZM156.399 135.3C159.066 135.3 161.433 134.7 163.499 133.5C165.566 132.233 167.033 130.4 167.899 128V122.5H157.199C150.799 122.5 147.599 124.6 147.599 128.8C147.599 130.8 148.366 132.4 149.899 133.6C151.499 134.733 153.666 135.3 156.399 135.3ZM197.051 91.2H212.551V123.2L238.751 91.2H253.051V145H237.551V113L211.451 145H197.051V91.2ZM319.647 91.2V145H304.047V104H287.047L286.547 113.5C286.28 120.567 285.614 126.433 284.547 131.1C283.48 135.767 281.747 139.433 279.347 142.1C276.947 144.767 273.614 146.1 269.347 146.1C267.08 146.1 264.38 145.7 261.247 144.9L262.047 132.1C263.114 132.233 263.88 132.3 264.347 132.3C266.68 132.3 268.414 131.467 269.547 129.8C270.747 128.067 271.547 125.9 271.947 123.3C272.347 120.633 272.647 117.133 272.847 112.8L273.647 91.2H319.647Z" transform="translate(201 -17)" fill="black"/>
<path d="M418.169 146.8C407.469 146.8 397.769 144.5 389.069 139.9C380.469 135.2 373.669 128.75 368.669 120.55C363.769 112.25 361.319 102.9 361.319 92.5C361.319 82.1 363.769 72.8 368.669 64.6C373.669 56.3 380.469 49.85 389.069 45.25C397.769 40.55 407.519 38.2 418.319 38.2C427.419 38.2 435.619 39.8 442.919 43C450.319 46.2 456.519 50.8 461.519 56.8L445.919 71.2C438.819 63 430.019 58.9 419.519 58.9C413.019 58.9 407.219 60.35 402.119 63.25C397.019 66.05 393.019 70 390.119 75.1C387.319 80.2 385.919 86 385.919 92.5C385.919 99 387.319 104.8 390.119 109.9C393.019 115 397.019 119 402.119 121.9C407.219 124.7 413.019 126.1 419.519 126.1C430.019 126.1 438.819 121.95 445.919 113.65L461.519 128.05C456.519 134.15 450.319 138.8 442.919 142C435.519 145.2 427.269 146.8 418.169 146.8ZM497.007 145.8C491.34 145.8 486.24 144.633 481.707 142.3C477.24 139.9 473.74 136.6 471.207 132.4C468.673 128.2 467.407 123.433 467.407 118.1C467.407 112.767 468.673 108 471.207 103.8C473.74 99.6 477.24 96.3333 481.707 94C486.24 91.6 491.34 90.4 497.007 90.4C502.673 90.4 507.74 91.6 512.207 94C516.673 96.3333 520.173 99.6 522.707 103.8C525.24 108 526.507 112.767 526.507 118.1C526.507 123.433 525.24 128.2 522.707 132.4C520.173 136.6 516.673 139.9 512.207 142.3C507.74 144.633 502.673 145.8 497.007 145.8ZM497.007 133C501.007 133 504.273 131.667 506.807 129C509.407 126.267 510.707 122.633 510.707 118.1C510.707 113.567 509.407 109.967 506.807 107.3C504.273 104.567 501.007 103.2 497.007 103.2C493.007 103.2 489.707 104.567 487.107 107.3C484.507 109.967 483.207 113.567 483.207 118.1C483.207 122.633 484.507 126.267 487.107 129C489.707 131.667 493.007 133 497.007 133ZM568.336 94.9C573.47 94.9 577.97 95.9667 581.836 98.1C585.703 100.167 588.67 103.1 590.736 106.9C592.87 110.7 593.936 115.1 593.936 120.1C593.936 125.233 592.67 129.8 590.136 133.8C587.67 137.733 584.203 140.8 579.736 143C575.27 145.133 570.203 146.2 564.536 146.2C555.136 146.2 547.736 143.2 542.336 137.2C537.003 131.133 534.336 122.267 534.336 110.6C534.336 99.8 536.67 91.2 541.336 84.8C546.07 78.3333 553.303 74.1 563.036 72.1L588.636 67L590.736 80.4L568.136 84.9C562.003 86.1 557.436 88.1 554.436 90.9C551.503 93.7 549.77 97.6667 549.236 102.8C551.57 100.267 554.37 98.3333 557.636 97C560.903 95.6 564.47 94.9 568.336 94.9ZM564.636 134.1C568.636 134.1 571.836 132.8 574.236 130.2C576.703 127.6 577.936 124.3 577.936 120.3C577.936 116.233 576.703 113 574.236 110.6C571.836 108.2 568.636 107 564.636 107C560.57 107 557.303 108.2 554.836 110.6C552.37 113 551.136 116.233 551.136 120.3C551.136 124.367 552.403 127.7 554.936 130.3C557.47 132.833 560.703 134.1 564.636 134.1ZM624.543 90.4C632.876 90.4 639.276 92.4 643.743 96.4C648.209 100.333 650.443 106.3 650.443 114.3V145H635.843V138.3C632.909 143.3 627.443 145.8 619.443 145.8C615.309 145.8 611.709 145.1 608.643 143.7C605.643 142.3 603.343 140.367 601.743 137.9C600.143 135.433 599.343 132.633 599.343 129.5C599.343 124.5 601.209 120.567 604.943 117.7C608.743 114.833 614.576 113.4 622.443 113.4H634.843C634.843 110 633.809 107.4 631.743 105.6C629.676 103.733 626.576 102.8 622.443 102.8C619.576 102.8 616.743 103.267 613.943 104.2C611.209 105.067 608.876 106.267 606.943 107.8L601.343 96.9C604.276 94.8333 607.776 93.2333 611.843 92.1C615.976 90.9667 620.209 90.4 624.543 90.4ZM623.343 135.3C626.009 135.3 628.376 134.7 630.443 133.5C632.509 132.233 633.976 130.4 634.843 128V122.5H624.143C617.743 122.5 614.543 124.6 614.543 128.8C614.543 130.8 615.309 132.4 616.843 133.6C618.443 134.733 620.609 135.3 623.343 135.3ZM687.694 124.6H679.594V145H663.994V91.2H679.594V112.1H687.994L702.594 91.2H719.194L700.394 117L720.494 145H702.094L687.694 124.6ZM728.154 91.2H743.654V123.2L769.854 91.2H784.154V145H768.654V113L742.554 145H728.154V91.2ZM799.15 91.2H814.65V112.2H838.05V91.2H853.65V145H838.05V124.9H814.65V145H799.15V91.2Z" transform="translate(201 -17)" fill="#F8B334"/>
</svg>
