<svg width="495" height="101" viewBox="0 0 495 101" version="1.1" xmlns="http://www.w3.org/2000/svg" xmlns:xlink="http://www.w3.org/1999/xlink">
<g id="Canvas" fill="none">
<g id="logo2">
<g id="Group">
<path id="Vector" d="M 101.199 0L 0 0L 0 101L 101.199 101L 101.199 0Z" fill="#DF2C31"/>
<path id="Vector_2" d="M 24.4068 1.22851e-06L 41.6133 53.5261L 58.7669 1.22851e-06L 83.2264 1.22851e-06L 83.2264 76.9336L 64.5906 76.9336L 64.5906 58.9686L 66.3907 22.1924L 47.7547 76.9336L 35.4719 76.9336L 16.783 22.1396L 18.583 58.9686L 18.583 76.9336L -2.37582e-07 76.9336L -2.37582e-07 1.22851e-06L 24.4068 1.22851e-06Z" transform="translate(8.71515 13.245)" fill="white"/>
<path id="Vector_3" d="M 19.8502 0.563652L 23.2385 0.563652L 23.2385 31.0553L 19.8502 31.0553L 19.8502 6.0025L 3.36013 31.0553L 0 31.0553L 0 0.563652L 3.36013 0.563652L 3.36013 25.6446L 19.8502 0.563652ZM 41.9027 12.935L 50.1477 0.563652L 54.1573 0.563652L 43.7946 15.5277L 54.6091 31.0553L 50.6278 31.0553L 41.931 18.1485L 33.2342 31.0553L 29.2528 31.0553L 40.0392 15.5277L 29.6764 0.563652L 33.6578 0.563652L 41.9027 12.935ZM 79.7114 31.0553C 79.3724 30.0971 79.1555 28.6787 79.0616 26.8C 77.8761 28.3405 76.3603 29.5335 74.5156 30.3789C 72.6897 31.2055 70.751 31.6188 68.6988 31.6188C 65.7624 31.6188 63.3811 30.8016 61.5552 29.1671C 59.7481 27.5327 58.8445 25.4661 58.8445 22.9674C 58.8445 19.999 60.0775 17.6506 62.5435 15.9221C 65.0283 14.1937 68.4827 13.3295 72.9065 13.3295L 79.0334 13.3295L 79.0334 9.8633C 79.0334 7.68401 78.3561 5.97437 77.0007 4.73437C 75.6642 3.47563 73.706 2.84625 71.1276 2.84625C 68.774 2.84625 66.826 3.44749 65.2825 4.64982C 63.7388 5.85223 62.967 7.29884 62.967 8.98972L 59.5787 8.96151C 59.5787 6.53795 60.7081 4.44321 62.967 2.67722C 65.2259 0.892408 68.0027 1.47509e-07 71.2967 1.47509e-07C 74.7042 1.47509e-07 77.3867 0.854821 79.3442 2.56446C 81.3205 4.25535 82.3368 6.6225 82.3939 9.66606L 82.3939 24.0946C 82.3939 27.0442 82.704 29.2517 83.3257 30.7171L 83.3257 31.0553L 79.7114 31.0553ZM 69.0942 28.6317C 71.3531 28.6317 73.3677 28.0869 75.1372 26.9972C 76.9256 25.9076 78.2238 24.4516 79.0334 22.6292L 79.0334 15.9221L 72.9911 15.9221C 69.6212 15.9597 66.986 16.5797 65.0848 17.7821C 63.1835 18.9657 62.2329 20.6002 62.2329 22.6855C 62.2329 24.3952 62.8635 25.8137 64.1247 26.9409C 65.4048 28.0681 67.0613 28.6317 69.0942 28.6317ZM 111.505 0.563652L 114.894 0.563652L 114.894 31.0553L 111.505 31.0553L 111.505 6.0025L 95.0156 31.0553L 91.6551 31.0553L 91.6551 0.563652L 95.0156 0.563652L 95.0156 25.6446L 111.505 0.563652ZM 147.45 0.563652L 147.45 31.0553L 144.062 31.0553L 144.062 3.46625L 131.553 3.46625L 131.016 14.8795C 130.791 19.1066 130.367 22.338 129.746 24.5737C 129.125 26.7905 128.202 28.4251 126.979 29.4771C 125.756 30.5292 124.127 31.0553 122.094 31.0553L 120.795 31.0553L 120.795 28.0681L 121.84 28.0117C 123.779 27.9742 125.171 27.0348 126.019 25.1937C 126.866 23.3525 127.421 20.0647 127.685 15.3304L 128.306 0.563652L 147.45 0.563652Z" transform="translate(107.998 38.2019)" fill="white"/>
<path id="Vector_4" d="M 30.6082 30.9707C 30.1376 35.2918 28.5846 38.5983 25.9492 40.8904C 23.3326 43.1824 19.8407 44.3284 15.4735 44.3284C 12.424 44.3284 9.72271 43.5676 7.36968 42.0458C 5.03546 40.524 3.22835 38.3729 1.94831 35.5924C 0.668261 32.7931 0.0188229 29.5993 -8.37164e-08 26.0109L -8.37164e-08 20.6847C -8.37164e-08 17.04 0.640019 13.8086 1.92007 10.9905C 3.20012 8.17249 5.03546 6.0025 7.42614 4.48079C 9.83569 2.94025 12.6028 2.16998 15.7276 2.16998C 20.1325 2.16998 23.6056 3.36294 26.1469 5.74892C 28.7069 8.11607 30.194 11.3945 30.6082 15.584L 27.1069 15.584C 26.241 8.61393 22.4479 5.12892 15.7276 5.12892C 12.0005 5.12892 9.02624 6.51919 6.80492 9.29972C 4.60254 12.0802 3.50131 15.9221 3.50131 20.8256L 3.50131 25.8418C 3.50131 30.5762 4.57428 34.3524 6.72027 37.1705C 8.88507 39.9886 11.8028 41.3977 15.4735 41.3977C 19.1066 41.3977 21.8455 40.5334 23.6903 38.805C 25.5351 37.0578 26.6739 34.4463 27.1069 30.9707L 30.6082 30.9707ZM 36.3967 28.0681C 36.3967 25.1373 36.9614 22.4977 38.0908 20.1493C 39.2391 17.8009 40.8486 15.9786 42.9193 14.6822C 45.0087 13.3671 47.3711 12.7096 50.0066 12.7096C 54.0726 12.7096 57.3669 14.1374 59.8893 16.993C 62.4117 19.8299 63.6729 23.5968 63.6729 28.2936L 63.6729 28.998C 63.6729 31.9477 63.0988 34.6061 61.9505 36.9732C 60.8211 39.3216 59.221 41.1346 57.1504 42.4121C 55.0797 43.6896 52.7173 44.3284 50.063 44.3284C 46.0158 44.3284 42.7216 42.91 40.1803 40.0731C 37.6578 37.2175 36.3967 33.4412 36.3967 28.7445L 36.3967 28.0681ZM 39.785 28.998C 39.785 32.6428 40.7262 35.6394 42.6086 37.9878C 44.5099 40.3174 46.9947 41.4821 50.063 41.4821C 53.1126 41.4821 55.5785 40.3174 57.461 37.9878C 59.3622 35.6394 60.3128 32.5488 60.3128 28.7162L 60.3128 28.0681C 60.3128 25.7385 59.8798 23.6062 59.0139 21.6711C 58.148 19.736 56.9339 18.2424 55.3715 17.1903C 53.8091 16.1195 52.0207 15.584 50.0066 15.584C 46.9947 15.584 44.5381 16.7676 42.6369 19.1348C 40.7357 21.4832 39.785 24.5643 39.785 28.3781L 39.785 28.998ZM 82.9867 15.3022C 86.8641 15.3022 90.0077 16.5704 92.4177 19.1066C 94.827 21.6241 96.032 24.9682 96.032 29.139L 96.032 29.8717C 96.032 32.6334 95.4768 35.1227 94.3658 37.3396C 93.2743 39.5377 91.6927 41.2567 89.6225 42.4967C 87.5703 43.7179 85.208 44.3284 82.5349 44.3284C 78.5065 44.3284 75.2406 42.9945 72.7367 40.3268C 70.2523 37.6402 69.0097 34.0612 69.0097 29.5899L 69.0097 26.8845C 69.0097 20.572 70.2147 15.5277 72.6239 11.7514C 75.0332 7.97518 78.4595 5.72071 82.9021 4.98803C 85.7068 4.53714 87.6737 3.92652 88.8035 3.15625C 89.9514 2.38598 90.526 1.33392 90.526 2.21263e-07L 93.4341 2.21263e-07C 93.4341 1.57813 93.1044 2.88384 92.4459 3.91714C 91.7867 4.95044 90.7986 5.78651 89.4808 6.42526C 88.163 7.04526 86.1492 7.57125 83.4385 8.00338C 80.3324 8.49186 77.8284 9.81633 75.9273 11.9769C 74.045 14.1186 72.8213 16.993 72.2567 20.6002C 73.4617 19.0221 74.9674 17.7445 76.7745 16.7676C 78.6004 15.7907 80.6714 15.3022 82.9867 15.3022ZM 72.3977 29.1671L 72.3977 29.8717C 72.3977 33.3097 73.3294 36.109 75.1937 38.2695C 77.0572 40.4113 79.504 41.4821 82.5349 41.4821C 85.5846 41.4821 88.0315 40.4019 89.8762 38.2414C 91.7209 36.0621 92.6433 33.2064 92.6433 29.6744L 92.6433 28.9417C 92.6433 25.7667 91.7021 23.174 89.8198 21.1638C 87.9563 19.1536 85.5087 18.1485 82.4785 18.1485C 79.4476 18.1485 77.0102 19.1724 75.1655 21.2202C 73.32 23.2492 72.3977 25.8982 72.3977 29.1671ZM 121.812 43.7648C 121.473 42.8067 121.257 41.3882 121.162 39.5095C 119.976 41.0501 118.461 42.243 116.616 43.0885C 114.79 43.9151 112.851 44.3284 110.799 44.3284C 107.863 44.3284 105.482 43.5112 103.656 41.8767C 101.849 40.2422 100.945 38.1756 100.945 35.677C 100.945 32.7086 102.178 30.3602 104.644 28.6317C 107.128 26.9033 110.583 26.0391 115.007 26.0391L 121.134 26.0391L 121.134 22.5729C 121.134 20.3936 120.456 18.6839 119.101 17.4439C 117.764 16.1852 115.807 15.5558 113.228 15.5558C 110.875 15.5558 108.926 16.157 107.383 17.3594C 105.839 18.5618 105.068 20.0084 105.068 21.6993L 101.679 21.6711C 101.679 19.2475 102.809 17.1528 105.068 15.3868C 107.327 13.602 110.103 12.7096 113.397 12.7096C 116.805 12.7096 119.487 13.5644 121.445 15.274C 123.421 16.9649 124.438 19.3321 124.494 22.3756L 124.494 36.8042C 124.494 39.7537 124.804 41.9612 125.426 43.4266L 125.426 43.7648L 121.812 43.7648ZM 111.195 41.3413C 113.453 41.3413 115.468 40.7964 117.238 39.7068C 119.026 38.6171 120.325 37.1611 121.134 35.3387L 121.134 28.6317L 115.091 28.6317C 111.721 28.6693 109.087 29.2893 107.185 30.4917C 105.284 31.6753 104.333 33.3097 104.333 35.3951C 104.333 37.1047 104.964 38.5232 106.225 39.6504C 107.505 40.7777 109.162 41.3413 111.195 41.3413ZM 141.831 29.7871L 137.144 29.7871L 137.144 43.7648L 133.727 43.7648L 133.727 13.2732L 137.144 13.2732L 137.144 26.8L 141.775 26.8L 152.985 13.2732L 157.248 13.2732L 144.711 28.0681L 158.632 43.7648L 154.17 43.7648L 141.831 29.7871ZM 183.593 13.2732L 186.981 13.2732L 186.981 43.7648L 183.593 43.7648L 183.593 18.7121L 167.103 43.7648L 163.743 43.7648L 163.743 13.2732L 167.103 13.2732L 167.103 38.3541L 183.593 13.2732ZM 219.509 43.7648L 216.121 43.7648L 216.121 29.7871L 199.659 29.7871L 199.659 43.7648L 196.271 43.7648L 196.271 13.2732L 199.659 13.2732L 199.659 26.9409L 216.121 26.9409L 216.121 13.2732L 219.509 13.2732L 219.509 43.7648Z" transform="translate(275.491 25.4923)" fill="white"/>
<path id="Vector_5" d="M 0 0L 0 64.9286" transform="translate(267.093 22.0036)" stroke="#DF2C31" stroke-width="5"/>
</g>
</g>
</g>
</svg>
